<svg width="24" height="24" viewBox="0 0 24 24" fill="none" xmlns="http://www.w3.org/2000/svg">
<path d="M12.0617 2.06547C11.9353 2.0088 11.7944 1.9927 11.6585 2.01939C11.5226 2.04607 11.3983 2.11422 11.3027 2.21447C11.2095 2.31053 11.1419 2.42841 11.1061 2.55734C11.0703 2.68628 11.0674 2.82213 11.0977 2.95247C11.1967 3.39247 11.2487 3.85247 11.2487 4.32247C11.2487 5.39847 10.9777 6.15247 10.5107 6.77747C10.0367 7.41247 9.35067 7.92947 8.48367 8.51247C8.47018 8.52175 8.45747 8.53212 8.44567 8.54347L8.34067 8.64947C7.24431 9.3568 6.37644 10.3667 5.84208 11.557C5.30772 12.7473 5.12978 14.0669 5.32979 15.3562C5.52979 16.6455 6.09918 17.8492 6.96904 18.8217C7.8389 19.7941 8.97195 20.4937 10.2311 20.8356C11.4902 21.1775 12.8214 21.1472 14.0637 20.7483C15.306 20.3494 16.406 19.599 17.2307 18.588C18.0553 17.5769 18.5693 16.3485 18.7104 15.0514C18.8515 13.7544 18.6137 12.4442 18.0257 11.2795C18.0071 11.2427 17.9798 11.2111 17.9461 11.1875C17.9124 11.1639 17.8734 11.1489 17.8325 11.144C17.7917 11.139 17.7502 11.1442 17.7119 11.1591C17.6735 11.1741 17.6394 11.1982 17.6127 11.2295L17.4047 11.4705C16.5267 12.4965 15.8177 13.3255 14.3647 13.6955C14.3027 13.7105 14.2647 13.6995 14.2377 13.6825C14.1946 13.6522 14.1626 13.6087 14.1467 13.5585C14.1205 13.4892 14.1135 13.4142 14.1265 13.3413C14.1396 13.2684 14.1721 13.2004 14.2207 13.1445C14.9977 12.3015 15.5497 11.1575 15.7467 9.53047C16.1167 6.48247 14.7317 3.23647 12.0617 2.06547Z" fill="white"/>
</svg>
