<svg width="74" height="74" viewBox="0 0 74 74" fill="none" xmlns="http://www.w3.org/2000/svg">
<g filter="url(#filter0_i_6024_52001)">
<g clip-path="url(#clip0_6024_52001)">
<rect x="1" y="1" width="72" height="72" rx="36" fill="url(#paint0_linear_6024_52001)"/>
<rect x="1" y="1" width="72" height="72" rx="36" fill="url(#paint1_linear_6024_52001)"/>
<g clip-path="url(#clip1_6024_52001)">
<path d="M32.375 53.25C35.35 53.25 37.75 50.85 37.75 47.875V42.5H32.375C29.4 42.5 27 44.9 27 47.875C27 50.85 29.4 53.25 32.375 53.25Z" fill="#0ACF83"/>
<path d="M27 37.125C27 34.15 29.4 31.75 32.375 31.75H37.75V42.5H32.375C29.4 42.5 27 40.1 27 37.125Z" fill="#A259FF"/>
<path d="M27 26.375C27 23.4 29.4 21 32.375 21H37.75V31.75H32.375C29.4 31.75 27 29.35 27 26.375Z" fill="#F24E1E"/>
<path d="M37.75 21H43.125C46.1 21 48.5 23.4 48.5 26.375C48.5 29.35 46.1 31.75 43.125 31.75H37.75V21Z" fill="#FF7262"/>
<path d="M48.5 37.125C48.5 40.1 46.1 42.5 43.125 42.5C40.15 42.5 37.75 40.1 37.75 37.125C37.75 34.15 40.15 31.75 43.125 31.75C46.1 31.75 48.5 34.15 48.5 37.125Z" fill="#1ABCFE"/>
</g>
<g filter="url(#filter1_f_6024_52001)">
<ellipse cx="36.5" cy="90.5" rx="32.5" ry="17.5" fill="#F4F4FE"/>
</g>
</g>
<rect x="0.5" y="0.5" width="73" height="73" rx="36.5" stroke="white" stroke-opacity="0.2"/>
</g>
<defs>
<filter id="filter0_i_6024_52001" x="0" y="0" width="74" height="78" filterUnits="userSpaceOnUse" color-interpolation-filters="sRGB">
<feFlood flood-opacity="0" result="BackgroundImageFix"/>
<feBlend mode="normal" in="SourceGraphic" in2="BackgroundImageFix" result="shape"/>
<feColorMatrix in="SourceAlpha" type="matrix" values="0 0 0 0 0 0 0 0 0 0 0 0 0 0 0 0 0 0 127 0" result="hardAlpha"/>
<feOffset dy="4"/>
<feGaussianBlur stdDeviation="4"/>
<feComposite in2="hardAlpha" operator="arithmetic" k2="-1" k3="1"/>
<feColorMatrix type="matrix" values="0 0 0 0 0.956863 0 0 0 0 0.956863 0 0 0 0 0.996078 0 0 0 0.25 0"/>
<feBlend mode="normal" in2="shape" result="effect1_innerShadow_6024_52001"/>
</filter>
<filter id="filter1_f_6024_52001" x="-36" y="33" width="145" height="115" filterUnits="userSpaceOnUse" color-interpolation-filters="sRGB">
<feFlood flood-opacity="0" result="BackgroundImageFix"/>
<feBlend mode="normal" in="SourceGraphic" in2="BackgroundImageFix" result="shape"/>
<feGaussianBlur stdDeviation="20" result="effect1_foregroundBlur_6024_52001"/>
</filter>
<linearGradient id="paint0_linear_6024_52001" x1="37" y1="1" x2="37" y2="73" gradientUnits="userSpaceOnUse">
<stop stop-color="#02071A" stop-opacity="0.04"/>
<stop offset="1" stop-color="#02071A" stop-opacity="0.16"/>
</linearGradient>
<linearGradient id="paint1_linear_6024_52001" x1="37" y1="1" x2="37" y2="73" gradientUnits="userSpaceOnUse">
<stop stop-color="#C0165F"/>
<stop offset="1" stop-color="#C0165F" stop-opacity="0.16"/>
</linearGradient>
<clipPath id="clip0_6024_52001">
<rect x="1" y="1" width="72" height="72" rx="36" fill="white"/>
</clipPath>
<clipPath id="clip1_6024_52001">
<rect width="32" height="32" fill="white" transform="translate(21 21)"/>
</clipPath>
</defs>
</svg>
