<svg width="164" height="40" viewBox="0 0 164 40" fill="none" xmlns="http://www.w3.org/2000/svg">
<g clip-path="url(#clip0_4155_1127)">
<path d="M48.0547 28.0911H59.7152V24.5789H52.1991V11.3496H48.0547V28.0911Z" fill="white"/>
<path d="M66.6227 25.75C64.9602 25.75 64.0939 24.2983 64.0939 22.1208C64.0939 19.9432 64.9602 18.4681 66.6227 18.4681C68.2851 18.4681 69.1749 19.9432 69.1749 22.1208C69.1749 24.2983 68.2851 25.75 66.6227 25.75ZM66.6461 28.4661C70.5095 28.4661 73.0383 25.7266 73.0383 22.1208C73.0383 18.5149 70.5095 15.7754 66.6461 15.7754C62.8061 15.7754 60.2305 18.5149 60.2305 22.1208C60.2305 25.7266 62.8061 28.4661 66.6461 28.4661Z" fill="white"/>
<path d="M79.7265 32.2359C81.506 32.2359 83.0747 31.8378 84.1284 30.9012C85.0884 30.0349 85.7206 28.7237 85.7206 26.9207V16.1032H82.0679V17.391H82.0211C81.3186 16.3841 80.2416 15.752 78.6494 15.752C75.6757 15.752 73.6152 18.2339 73.6152 21.7461C73.6152 25.4222 76.1206 27.4359 78.8133 27.4359C80.265 27.4359 81.1782 26.8505 81.8806 26.0544H81.9743V27.2485C81.9743 28.7002 81.2952 29.5432 79.6796 29.5432C78.4152 29.5432 77.783 29.0046 77.5723 28.3724H73.8728C74.2474 30.8778 76.425 32.2359 79.7265 32.2359ZM79.703 24.6027C78.2747 24.6027 77.3382 23.432 77.3382 21.629C77.3382 19.8027 78.2747 18.632 79.703 18.632C81.2952 18.632 82.1382 19.99 82.1382 21.6056C82.1382 23.2915 81.3655 24.6027 79.703 24.6027Z" fill="white"/>
<path d="M93.2301 25.75C91.5676 25.75 90.7013 24.2983 90.7013 22.1208C90.7013 19.9432 91.5676 18.4681 93.2301 18.4681C94.8925 18.4681 95.7823 19.9432 95.7823 22.1208C95.7823 24.2983 94.8925 25.75 93.2301 25.75ZM93.2535 28.4661C97.1169 28.4661 99.646 25.7266 99.646 22.1208C99.646 18.5149 97.1169 15.7754 93.2535 15.7754C89.4135 15.7754 86.8379 18.5149 86.8379 22.1208C86.8379 25.7266 89.4135 28.4661 93.2535 28.4661Z" fill="white"/>
<path d="M100.762 28.0911H104.578V16.1028H100.762V28.0911ZM100.762 14.4403H104.578V11.3496H100.762V14.4403Z" fill="white"/>
<path d="M106.232 32.0485H110.049V26.8505H110.096C110.845 27.8573 111.946 28.4661 113.491 28.4661C116.629 28.4661 118.712 25.9841 118.712 22.0973C118.712 18.4915 116.769 15.752 113.585 15.752C111.946 15.752 110.775 16.4778 109.955 17.5549H109.885V16.1032H106.232V32.0485ZM112.508 25.5159C110.869 25.5159 109.932 24.1812 109.932 22.2378C109.932 20.2944 110.775 18.8193 112.437 18.8193C114.076 18.8193 114.849 20.1773 114.849 22.2378C114.849 24.2749 113.959 25.5159 112.508 25.5159Z" fill="white"/>
<path d="M124.928 28.4661C128.065 28.4661 130.384 27.1081 130.384 24.4856C130.384 21.4183 127.902 20.8798 125.794 20.5285C124.272 20.2476 122.914 20.1305 122.914 19.2876C122.914 18.5383 123.64 18.1871 124.577 18.1871C125.63 18.1871 126.356 18.5149 126.497 19.592H130.009C129.822 17.2271 127.995 15.752 124.6 15.752C121.767 15.752 119.425 17.0632 119.425 19.592C119.425 22.4017 121.65 22.9637 123.734 23.3149C125.326 23.5959 126.778 23.7129 126.778 24.79C126.778 25.5627 126.052 25.9841 124.904 25.9841C123.64 25.9841 122.844 25.3988 122.704 24.2046H119.098C119.215 26.8505 121.416 28.4661 124.928 28.4661Z" fill="white"/>
<path d="M135.566 28.4421C137.229 28.4421 138.282 27.7864 139.149 26.6157H139.219V28.0908H142.872V16.1025H139.055V22.7991C139.055 24.2274 138.259 25.2108 136.948 25.2108C135.73 25.2108 135.145 24.485 135.145 23.1738V16.1025H131.352V23.9699C131.352 26.6391 132.803 28.4421 135.566 28.4421Z" fill="white"/>
<path d="M144.533 28.0915H148.35V21.3715C148.35 19.9432 149.052 18.9363 150.246 18.9363C151.394 18.9363 151.932 19.6856 151.932 20.9734V28.0915H155.749V21.3715C155.749 19.9432 156.428 18.9363 157.645 18.9363C158.793 18.9363 159.331 19.6856 159.331 20.9734V28.0915H163.148V20.2944C163.148 17.6017 161.79 15.752 159.074 15.752C157.528 15.752 156.241 16.4076 155.304 17.8593H155.257C154.648 16.5715 153.454 15.752 151.885 15.752C150.153 15.752 149.005 16.5715 148.256 17.8124H148.186V16.1032H144.533V28.0915Z" fill="white"/>
<path fill-rule="evenodd" clip-rule="evenodd" d="M9.05311 3.79625C7.65735 4.77221 6.3952 5.92611 5.29954 7.22506C9.77691 6.80938 15.4652 7.48813 22.0693 10.7902C29.1216 14.3163 34.8005 14.4355 38.7527 13.6731C38.394 12.5874 37.9425 11.5439 37.4078 10.5519C32.8836 11.029 27.0836 10.3974 20.3242 7.01782C16.0319 4.87167 12.2483 3.9876 9.05311 3.79625ZM34.7649 6.79018C31.1922 2.79832 26.0001 0.286133 20.2211 0.286133C18.5241 0.286133 16.8774 0.502823 15.3077 0.910016C17.4337 1.49012 19.6923 2.3388 22.0693 3.52737C27.0182 6.00177 31.2908 6.79848 34.7649 6.79018ZM39.5976 17.4843C34.823 18.4271 28.2297 18.2334 20.3242 14.2806C12.9333 10.5852 7.05087 10.6318 3.08352 11.5134C2.87874 11.5589 2.67878 11.6067 2.48365 11.6565C1.96422 12.7861 1.5496 13.974 1.25211 15.2076C1.56985 15.1227 1.89818 15.042 2.23695 14.9667C7.05003 13.8971 13.8505 13.9436 22.0693 18.053C29.4603 21.7485 35.3427 21.7019 39.3101 20.8203C39.446 20.7901 39.58 20.7589 39.7117 20.7267C39.7261 20.4191 39.7333 20.1095 39.7333 19.7983C39.7333 19.0154 39.6873 18.2432 39.5976 17.4843ZM39.0746 24.8445C34.3463 25.6711 27.945 25.3538 20.3242 21.5435C12.9333 17.8481 7.05087 17.8946 3.08352 18.7763C2.20289 18.9719 1.41068 19.2102 0.711843 19.4618C0.709938 19.5737 0.708984 19.6859 0.708984 19.7983C0.708984 30.5746 9.44488 39.3105 20.2211 39.3105C29.2525 39.3105 36.8507 33.1748 39.0746 24.8445Z" fill="white"/>
</g>
<defs>
<clipPath id="clip0_4155_1127">
<rect width="162.927" height="40" fill="white" transform="translate(0.609375)"/>
</clipPath>
</defs>
</svg>
