<svg width="166" height="40" viewBox="0 0 166 40" fill="none" xmlns="http://www.w3.org/2000/svg">
<g clip-path="url(#clip0_4155_1086)">
<path d="M50.0273 28.6077H61.6878V25.0955H54.1717V11.8662H50.0273V28.6077Z" fill="white"/>
<path d="M68.5953 26.2666C66.9329 26.2666 66.0665 24.8149 66.0665 22.6374C66.0665 20.4598 66.9329 18.9847 68.5953 18.9847C70.2578 18.9847 71.1475 20.4598 71.1475 22.6374C71.1475 24.8149 70.2578 26.2666 68.5953 26.2666ZM68.6187 28.9827C72.4822 28.9827 75.0109 26.2432 75.0109 22.6374C75.0109 19.0315 72.4822 16.292 68.6187 16.292C64.7787 16.292 62.2031 19.0315 62.2031 22.6374C62.2031 26.2432 64.7787 28.9827 68.6187 28.9827Z" fill="white"/>
<path d="M81.6991 32.7525C83.4786 32.7525 85.0474 32.3544 86.1011 31.4178C87.0611 30.5515 87.6933 29.2403 87.6933 27.4373V16.6198H84.0406V17.9076H83.9937C83.2913 16.9008 82.2142 16.2686 80.622 16.2686C77.6484 16.2686 75.5879 18.7505 75.5879 22.2627C75.5879 25.9388 78.0933 27.9525 80.7859 27.9525C82.2376 27.9525 83.1508 27.3671 83.8533 26.571H83.9469V27.7651C83.9469 29.2168 83.2679 30.0598 81.6523 30.0598C80.3879 30.0598 79.7557 29.5212 79.545 28.889H75.8455C76.2201 31.3944 78.3976 32.7525 81.6991 32.7525ZM81.6757 25.1193C80.2474 25.1193 79.3108 23.9486 79.3108 22.1456C79.3108 20.3193 80.2474 19.1486 81.6757 19.1486C83.2679 19.1486 84.1108 20.5066 84.1108 22.1222C84.1108 23.8081 83.3381 25.1193 81.6757 25.1193Z" fill="white"/>
<path d="M95.2027 26.2666C93.5403 26.2666 92.674 24.8149 92.674 22.6374C92.674 20.4598 93.5403 18.9847 95.2027 18.9847C96.8652 18.9847 97.7545 20.4598 97.7545 22.6374C97.7545 24.8149 96.8652 26.2666 95.2027 26.2666ZM95.2262 28.9827C99.0892 28.9827 101.618 26.2432 101.618 22.6374C101.618 19.0315 99.0892 16.292 95.2262 16.292C91.3862 16.292 88.8105 19.0315 88.8105 22.6374C88.8105 26.2432 91.3862 28.9827 95.2262 28.9827Z" fill="white"/>
<path d="M102.734 28.6077H106.551V16.6194H102.734V28.6077ZM102.734 14.9569H106.551V11.8662H102.734V14.9569Z" fill="white"/>
<path d="M108.205 32.5651H112.022V27.3671H112.068C112.818 28.3739 113.918 28.9827 115.464 28.9827C118.601 28.9827 120.685 26.5007 120.685 22.6139C120.685 19.0081 118.742 16.2686 115.557 16.2686C113.918 16.2686 112.748 16.9944 111.928 18.0715H111.858V16.6198H108.205V32.5651ZM114.48 26.0325C112.841 26.0325 111.905 24.6978 111.905 22.7544C111.905 20.811 112.748 19.3359 114.41 19.3359C116.049 19.3359 116.822 20.6939 116.822 22.7544C116.822 24.7915 115.932 26.0325 114.48 26.0325Z" fill="white"/>
<path d="M126.899 28.9827C130.036 28.9827 132.354 27.6247 132.354 25.0022C132.354 21.9349 129.872 21.3964 127.765 21.0451C126.243 20.7642 124.885 20.6471 124.885 19.8042C124.885 19.0549 125.611 18.7037 126.547 18.7037C127.601 18.7037 128.327 19.0315 128.467 20.1086H131.98C131.792 17.7437 129.966 16.2686 126.571 16.2686C123.738 16.2686 121.396 17.5798 121.396 20.1086C121.396 22.9183 123.621 23.4803 125.704 23.8315C127.297 24.1125 128.748 24.2295 128.748 25.3066C128.748 26.0793 128.023 26.5008 126.875 26.5008C125.611 26.5008 124.815 25.9154 124.674 24.7212H121.068C121.185 27.3671 123.386 28.9827 126.899 28.9827Z" fill="white"/>
<path d="M137.539 28.9596C139.201 28.9596 140.255 28.304 141.121 27.1333H141.192V28.6084H144.844V16.6201H141.028V23.3167C141.028 24.745 140.232 25.7284 138.92 25.7284C137.703 25.7284 137.117 25.0026 137.117 23.6913V16.6201H133.324V24.4874C133.324 27.1567 134.776 28.9596 137.539 28.9596Z" fill="white"/>
<path d="M146.506 28.6081H150.322V21.8881C150.322 20.4598 151.025 19.4529 152.219 19.4529C153.366 19.4529 153.905 20.2022 153.905 21.49V28.6081H157.721V21.8881C157.721 20.4598 158.4 19.4529 159.618 19.4529C160.765 19.4529 161.304 20.2022 161.304 21.49V28.6081H165.12V20.811C165.12 18.1183 163.762 16.2686 161.046 16.2686C159.501 16.2686 158.213 16.9242 157.277 18.3759H157.23C156.621 17.0881 155.427 16.2686 153.858 16.2686C152.125 16.2686 150.978 17.0881 150.229 18.329H150.159V16.6198H146.506V28.6081Z" fill="white"/>
<path fill-rule="evenodd" clip-rule="evenodd" d="M19.6118 39.3398C30.3882 39.3398 39.124 30.6039 39.124 19.8276C39.124 9.05133 30.3882 0.31543 19.6118 0.31543C8.8355 0.31543 0.0996094 9.05133 0.0996094 19.8276C0.0996094 30.6039 8.8355 39.3398 19.6118 39.3398ZM22.6235 15.3911C24.2867 13.7278 24.2867 11.0311 22.6235 9.36778C20.9602 7.70448 18.2635 7.70448 16.6002 9.36778C14.9369 11.0311 14.9369 13.7278 16.6002 15.3911L19.6118 18.4027L22.6235 15.3911ZM24.0484 22.8393C25.7117 24.5026 28.4084 24.5026 30.0717 22.8393C31.7349 21.176 31.7349 18.4793 30.0717 16.816C28.4084 15.1528 25.7117 15.1528 24.0484 16.816L21.0367 19.8277L24.0484 22.8393ZM22.6235 30.2875C24.2867 28.6242 24.2867 25.9275 22.6235 24.2642L19.6118 21.2526L16.6002 24.2642C14.9369 25.9275 14.9369 28.6242 16.6002 30.2875C18.2635 31.9508 20.9602 31.9508 22.6235 30.2875ZM9.15193 22.8393C7.48867 21.176 7.48867 18.4793 9.15193 16.816C10.8153 15.1528 13.512 15.1528 15.1753 16.816L18.1869 19.8277L15.1753 22.8393C13.512 24.5026 10.8153 24.5026 9.15193 22.8393Z" fill="white"/>
</g>
<defs>
<clipPath id="clip0_4155_1086">
<rect width="165.854" height="40" fill="white"/>
</clipPath>
</defs>
</svg>
