<svg width="165" height="40" viewBox="0 0 165 40" fill="none" xmlns="http://www.w3.org/2000/svg">
<path d="M48.7832 28.2463H60.4437V24.7342H52.9276V11.5049H48.7832V28.2463Z" fill="white"/>
<path d="M67.3512 25.9043C65.6887 25.9043 64.8224 24.4526 64.8224 22.2751C64.8224 20.0975 65.6887 18.6224 67.3512 18.6224C69.0136 18.6224 69.9034 20.0975 69.9034 22.2751C69.9034 24.4526 69.0136 25.9043 67.3512 25.9043ZM67.3746 28.6204C71.238 28.6204 73.7668 25.8809 73.7668 22.2751C73.7668 18.6692 71.238 15.9297 67.3746 15.9297C63.5346 15.9297 60.959 18.6692 60.959 22.2751C60.959 25.8809 63.5346 28.6204 67.3746 28.6204Z" fill="white"/>
<path d="M80.455 32.3902C82.2345 32.3902 83.8033 31.9921 84.8569 31.0555C85.8169 30.1892 86.4491 28.878 86.4491 27.075V16.2575H82.7964V17.5453H82.7496C82.0472 16.5384 80.9701 15.9062 79.3779 15.9062C76.4042 15.9062 74.3438 18.3882 74.3438 21.9004C74.3438 25.5765 76.8491 27.5902 79.5418 27.5902C80.9935 27.5902 81.9067 27.0048 82.6091 26.2087H82.7028V27.4028C82.7028 28.8545 82.0238 29.6975 80.4081 29.6975C79.1438 29.6975 78.5116 29.1589 78.3008 28.5267H74.6013C74.9759 31.0321 77.1535 32.3902 80.455 32.3902ZM80.4316 24.757C79.0033 24.757 78.0667 23.5862 78.0667 21.7833C78.0667 19.957 79.0033 18.7862 80.4316 18.7862C82.0238 18.7862 82.8667 20.1443 82.8667 21.7599C82.8667 23.4458 82.094 24.757 80.4316 24.757Z" fill="white"/>
<path d="M93.9586 25.9043C92.2962 25.9043 91.4298 24.4526 91.4298 22.2751C91.4298 20.0975 92.2962 18.6224 93.9586 18.6224C95.621 18.6224 96.5108 20.0975 96.5108 22.2751C96.5108 24.4526 95.621 25.9043 93.9586 25.9043ZM93.982 28.6204C97.8454 28.6204 100.374 25.8809 100.374 22.2751C100.374 18.6692 97.8454 15.9297 93.982 15.9297C90.142 15.9297 87.5664 18.6692 87.5664 22.2751C87.5664 25.8809 90.142 28.6204 93.982 28.6204Z" fill="white"/>
<path d="M101.49 28.2463H105.307V16.2581H101.49V28.2463ZM101.49 14.5956H105.307V11.5049H101.49V14.5956Z" fill="white"/>
<path d="M106.961 32.2028H110.778V27.0048H110.824C111.574 28.0116 112.674 28.6204 114.219 28.6204C117.357 28.6204 119.441 26.1384 119.441 22.2516C119.441 18.6458 117.498 15.9062 114.313 15.9062C112.674 15.9062 111.503 16.6321 110.684 17.7092H110.614V16.2575H106.961V32.2028ZM113.236 25.6702C111.597 25.6702 110.66 24.3355 110.66 22.3921C110.66 20.4487 111.503 18.9736 113.166 18.9736C114.805 18.9736 115.578 20.3316 115.578 22.3921C115.578 24.4292 114.688 25.6702 113.236 25.6702Z" fill="white"/>
<path d="M125.654 28.6204C128.792 28.6204 131.11 27.2623 131.11 24.6399C131.11 21.5726 128.628 21.0341 126.521 20.6828C124.999 20.4019 123.641 20.2848 123.641 19.4419C123.641 18.6926 124.367 18.3414 125.303 18.3414C126.357 18.3414 127.083 18.6692 127.223 19.7463H130.735C130.548 17.3814 128.722 15.9062 125.327 15.9062C122.493 15.9062 120.152 17.2175 120.152 19.7463C120.152 22.556 122.376 23.118 124.46 23.4692C126.053 23.7502 127.504 23.8672 127.504 24.9443C127.504 25.717 126.778 26.1384 125.631 26.1384C124.367 26.1384 123.571 25.5531 123.43 24.3589H119.824C119.941 27.0048 122.142 28.6204 125.654 28.6204Z" fill="white"/>
<path d="M136.295 28.5973C137.957 28.5973 139.011 27.9417 139.877 26.771H139.947V28.2461H143.6V16.2578H139.783V22.9544C139.783 24.3827 138.987 25.3661 137.676 25.3661C136.459 25.3661 135.873 24.6403 135.873 23.329V16.2578H132.08V24.1251C132.08 26.7944 133.532 28.5973 136.295 28.5973Z" fill="white"/>
<path d="M145.262 28.2458H149.078V21.5258C149.078 20.0975 149.781 19.0906 150.975 19.0906C152.122 19.0906 152.661 19.8399 152.661 21.1277V28.2458H156.477V21.5258C156.477 20.0975 157.156 19.0906 158.374 19.0906C159.521 19.0906 160.06 19.8399 160.06 21.1277V28.2458H163.876V20.4487C163.876 17.756 162.518 15.9062 159.802 15.9062C158.257 15.9062 156.969 16.5619 156.032 18.0136H155.986C155.377 16.7258 154.183 15.9062 152.614 15.9062C150.881 15.9062 149.734 16.7258 148.985 17.9667H148.914V16.2575H145.262V28.2458Z" fill="white"/>
<path d="M25.4981 1.92855L21.661 0.900391L18.4274 12.9683L15.5081 2.07331L11.671 3.10146L14.8251 14.8727L6.96887 7.01647L4.15991 9.82543L12.7772 18.4428L2.04573 15.5673L1.01758 19.4044L12.7431 22.5462C12.6088 21.9672 12.5378 21.3639 12.5378 20.744C12.5378 16.3561 16.0949 12.799 20.4828 12.799C24.8707 12.799 28.4277 16.3561 28.4277 20.744C28.4277 21.3599 28.3576 21.9595 28.225 22.5351L38.8813 25.3904L39.9094 21.5533L28.1373 18.399L38.8695 15.5233L37.8413 11.6862L26.0697 14.8404L33.9259 6.98421L31.1169 4.17525L22.6192 12.673L25.4981 1.92855Z" fill="white"/>
<path d="M28.2128 22.5801C27.8838 23.9709 27.1893 25.2204 26.2363 26.2214L33.9563 33.9415L36.7653 31.1326L28.2128 22.5801Z" fill="white"/>
<path d="M26.1595 26.3018C25.195 27.2868 23.9762 28.022 22.6094 28.4008L25.4185 38.8847L29.2556 37.8565L26.1595 26.3018Z" fill="white"/>
<path d="M22.4654 28.4394C21.8313 28.6024 21.1666 28.6891 20.4816 28.6891C19.7478 28.6891 19.0371 28.5896 18.3625 28.4033L15.5508 38.8968L19.3879 39.9249L22.4654 28.4394Z" fill="white"/>
<path d="M18.2269 28.3644C16.881 27.9668 15.6838 27.2223 14.739 26.2344L7 33.9734L9.80897 36.7824L18.2269 28.3644Z" fill="white"/>
<path d="M14.6747 26.1666C13.7461 25.1725 13.0697 23.9397 12.7477 22.5703L2.05664 25.435L3.08479 29.2721L14.6747 26.1666Z" fill="white"/>
</svg>
