<svg width="24" height="24" viewBox="0 0 24 24" fill="none" xmlns="http://www.w3.org/2000/svg">
<path d="M21.75 6.72922C21.75 6.52922 21.67 6.33922 21.53 6.19922L17.81 2.47922C17.52 2.18922 17.04 2.18922 16.75 2.47922C16.46 2.76922 16.46 3.24922 16.75 3.53922L19.2 5.98922H3C2.59 5.98922 2.25 6.32922 2.25 6.73922C2.25 7.14922 2.59 7.47922 3 7.47922H19.19L16.75 9.91922C16.46 10.2092 16.46 10.6892 16.75 10.9792C16.9 11.1292 17.09 11.1992 17.28 11.1992C17.47 11.1992 17.66 11.1292 17.81 10.9792L21.52 7.26922C21.59 7.19922 21.65 7.10922 21.69 7.00922C21.69 6.99922 21.69 6.98922 21.7 6.97922C21.73 6.89922 21.75 6.81922 21.75 6.72922Z" fill="white"/>
<path d="M21 16.5202H4.81L7.25 14.0802C7.54 13.7902 7.54 13.3102 7.25 13.0202C6.96 12.7302 6.48 12.7302 6.19 13.0202L2.48 16.7302C2.41 16.8002 2.35 16.8902 2.31 16.9902C2.31 17.0002 2.31 17.0102 2.3 17.0202C2.27 17.1002 2.25 17.1902 2.25 17.2802C2.25 17.4802 2.33 17.6702 2.47 17.8102L6.19 21.5302C6.34 21.6802 6.53 21.7502 6.72 21.7502C6.91 21.7502 7.1 21.6802 7.25 21.5302C7.54 21.2402 7.54 20.7602 7.25 20.4702L4.8 18.0202H21C21.41 18.0202 21.75 17.6802 21.75 17.2702C21.75 16.8602 21.41 16.5202 21 16.5202Z" fill="white"/>
</svg>
