<svg width="74" height="74" viewBox="0 0 74 74" fill="none" xmlns="http://www.w3.org/2000/svg">
<g filter="url(#filter0_i_6024_51228)">
<g clip-path="url(#clip0_6024_51228)">
<rect x="1" y="1" width="72" height="72" rx="36" fill="url(#paint0_linear_6024_51228)"/>
<rect x="1" y="1" width="72" height="72" rx="36" fill="url(#paint1_linear_6024_51228)"/>
<path fill-rule="evenodd" clip-rule="evenodd" d="M31.6611 47.6727L40.9944 38.3354C41.7004 37.6299 42.0972 36.6729 42.0976 35.6748C42.098 34.6767 41.7019 33.7194 40.9964 33.0134C40.2909 32.3074 39.3339 31.9105 38.3358 31.9102C37.3377 31.9098 36.3804 32.3059 35.6744 33.0114L26.3317 42.3407C25.9815 42.6906 25.7037 43.1061 25.5141 43.5634C25.3244 44.0207 25.2267 44.5109 25.2266 45.006C25.2264 45.501 25.3237 45.9913 25.513 46.4487C25.7023 46.9062 25.9798 47.3219 26.3297 47.672C26.6796 48.0222 27.0951 48.3001 27.5524 48.4897C28.0097 48.6793 28.4999 48.777 28.995 48.7772C29.49 48.7774 29.9803 48.6801 30.4377 48.4908C30.8952 48.3015 31.3109 48.0226 31.6611 47.6727ZM35.6624 35.6727L38.3291 38.3394L39.6624 37.006C39.8375 36.8309 39.9764 36.6231 40.0711 36.3943C40.1659 36.1655 40.2147 35.9203 40.2147 35.6727C40.2147 35.4251 40.1659 35.1799 40.0711 34.9511C39.9764 34.7223 39.8375 34.5145 39.6624 34.3394C39.4873 34.1643 39.2794 34.0254 39.0506 33.9306C38.8219 33.8359 38.5767 33.7871 38.3291 33.7871C38.0814 33.7871 37.8362 33.8359 37.6075 33.9306C37.3787 34.0254 37.1708 34.1643 36.9957 34.3394L35.6624 35.6727Z" fill="white"/>
<path d="M35.6624 35.6727L38.3291 38.3394L39.6624 37.006C39.8375 36.8309 39.9764 36.6231 40.0711 36.3943C40.1659 36.1655 40.2147 35.9203 40.2147 35.6727C40.2147 35.4251 40.1659 35.1799 40.0711 34.9511C39.9764 34.7223 39.8375 34.5145 39.6624 34.3394C39.4873 34.1643 39.2794 34.0254 39.0506 33.9306C38.8219 33.8359 38.5767 33.7871 38.3291 33.7871C38.0814 33.7871 37.8362 33.8359 37.6075 33.9306C37.3787 34.0254 37.1708 34.1643 36.9957 34.3394L35.6624 35.6727Z" fill="white"/>
<path d="M30.0087 27.5315C30.0967 27.2022 30.5633 27.2022 30.6513 27.5315L31.13 29.3022C31.1452 29.3584 31.1749 29.4096 31.2161 29.4508C31.2572 29.492 31.3085 29.5216 31.3647 29.5368L33.1353 30.0142C33.4647 30.1022 33.4647 30.5688 33.1353 30.6568L31.3633 31.1355C31.3071 31.1507 31.2559 31.1804 31.2147 31.2216C31.1736 31.2627 31.1439 31.314 31.1287 31.3702L30.65 33.1395C30.562 33.4688 30.0953 33.4688 30.0073 33.1395L29.53 31.3688C29.5148 31.3126 29.4851 31.2614 29.444 31.2202C29.4028 31.1791 29.3515 31.1494 29.2953 31.1342L27.5233 30.6568C27.1953 30.5688 27.1953 30.1022 27.5233 30.0142L29.2967 29.5355C29.3529 29.5203 29.4041 29.4906 29.4453 29.4495C29.4865 29.4083 29.5161 29.357 29.5313 29.3008L30.0087 27.5315ZM43.342 26.1982C43.43 25.8688 43.8967 25.8688 43.9847 26.1982L44.462 27.9688C44.4772 28.025 44.5069 28.0763 44.5481 28.1175C44.5892 28.1586 44.6405 28.1883 44.6967 28.2035L46.4673 28.6808C46.7967 28.7688 46.7967 29.2355 46.4673 29.3235L44.6967 29.8008C44.6405 29.8161 44.5892 29.8457 44.5481 29.8869C44.5069 29.9281 44.4772 29.9793 44.462 30.0355L43.9847 31.8062C43.8967 32.1355 43.43 32.1355 43.342 31.8062L42.8633 30.0355C42.848 29.9791 42.8181 29.9278 42.7767 29.8866C42.7353 29.8454 42.6838 29.8158 42.6273 29.8008L40.8567 29.3235C40.5287 29.2355 40.5287 28.7688 40.8567 28.6808L42.6273 28.2035C42.6838 28.1885 42.7353 28.1589 42.7767 28.1177C42.8181 28.0765 42.848 28.0252 42.8633 27.9688L43.342 26.1982ZM44.6753 38.1982C44.7633 37.8688 45.23 37.8688 45.318 38.1982L45.7953 39.9688C45.8106 40.025 45.8402 40.0763 45.8814 40.1175C45.9226 40.1586 45.9738 40.1883 46.03 40.2035L47.8007 40.6808C48.13 40.7688 48.13 41.2355 47.8007 41.3235L46.03 41.8008C45.9738 41.8161 45.9226 41.8457 45.8814 41.8869C45.8402 41.9281 45.8106 41.9793 45.7953 42.0355L45.318 43.8062C45.23 44.1355 44.7633 44.1355 44.6753 43.8062L44.198 42.0355C44.1827 41.9791 44.1528 41.9278 44.1114 41.8866C44.07 41.8454 44.0185 41.8158 43.962 41.8008L42.1913 41.3235C41.8633 41.2355 41.8633 40.7688 42.1913 40.6808L43.962 40.2035C44.0185 40.1885 44.07 40.1589 44.1114 40.1177C44.1528 40.0765 44.1827 40.0252 44.198 39.9688L44.6753 38.1982Z" fill="white"/>
<g filter="url(#filter1_f_6024_51228)">
<ellipse cx="36.5" cy="90.5" rx="32.5" ry="17.5" fill="#F4F4FE"/>
</g>
</g>
<rect x="0.5" y="0.5" width="73" height="73" rx="36.5" stroke="white" stroke-opacity="0.2"/>
</g>
<defs>
<filter id="filter0_i_6024_51228" x="0" y="0" width="74" height="78" filterUnits="userSpaceOnUse" color-interpolation-filters="sRGB">
<feFlood flood-opacity="0" result="BackgroundImageFix"/>
<feBlend mode="normal" in="SourceGraphic" in2="BackgroundImageFix" result="shape"/>
<feColorMatrix in="SourceAlpha" type="matrix" values="0 0 0 0 0 0 0 0 0 0 0 0 0 0 0 0 0 0 127 0" result="hardAlpha"/>
<feOffset dy="4"/>
<feGaussianBlur stdDeviation="4"/>
<feComposite in2="hardAlpha" operator="arithmetic" k2="-1" k3="1"/>
<feColorMatrix type="matrix" values="0 0 0 0 0.956863 0 0 0 0 0.956863 0 0 0 0 0.996078 0 0 0 0.25 0"/>
<feBlend mode="normal" in2="shape" result="effect1_innerShadow_6024_51228"/>
</filter>
<filter id="filter1_f_6024_51228" x="-36" y="33" width="145" height="115" filterUnits="userSpaceOnUse" color-interpolation-filters="sRGB">
<feFlood flood-opacity="0" result="BackgroundImageFix"/>
<feBlend mode="normal" in="SourceGraphic" in2="BackgroundImageFix" result="shape"/>
<feGaussianBlur stdDeviation="20" result="effect1_foregroundBlur_6024_51228"/>
</filter>
<linearGradient id="paint0_linear_6024_51228" x1="37" y1="1" x2="37" y2="73" gradientUnits="userSpaceOnUse">
<stop stop-color="#02071A" stop-opacity="0.04"/>
<stop offset="1" stop-color="#02071A" stop-opacity="0.16"/>
</linearGradient>
<linearGradient id="paint1_linear_6024_51228" x1="37" y1="1" x2="37" y2="73" gradientUnits="userSpaceOnUse">
<stop stop-color="#C0165F"/>
<stop offset="1" stop-color="#C0165F" stop-opacity="0.16"/>
</linearGradient>
<clipPath id="clip0_6024_51228">
<rect x="1" y="1" width="72" height="72" rx="36" fill="white"/>
</clipPath>
</defs>
</svg>
