<svg width="64" height="59" viewBox="0 0 64 59" fill="none" xmlns="http://www.w3.org/2000/svg">
<rect y="12.2764" width="47.4174" height="47.4174" rx="8" transform="rotate(-15 0 12.2764)" fill="#0158FF" fill-opacity="0.2"/>
<rect x="18.1992" y="0.000976562" width="47.4174" height="47.4174" rx="8" transform="rotate(15 18.1992 0.000976562)" fill="#9FBEFA"/>
<rect x="8.29297" y="2.36719" width="47.7087" height="47.7087" rx="8" fill="#0158FF"/>
<path fill-rule="evenodd" clip-rule="evenodd" d="M28.1462 34.2252L35.1462 27.2222C35.6757 26.6931 35.9733 25.9753 35.9736 25.2268C35.9739 24.4782 35.6768 23.7602 35.1477 23.2307C34.6186 22.7012 33.9008 22.4036 33.1522 22.4033C32.4037 22.403 31.6857 22.7001 31.1562 23.2292L24.1492 30.2262C23.8865 30.4887 23.6782 30.8003 23.5359 31.1433C23.3937 31.4862 23.3205 31.8539 23.3203 32.2252C23.3202 32.5965 23.3932 32.9642 23.5351 33.3072C23.6771 33.6503 23.8852 33.9621 24.1477 34.2247C24.4101 34.4874 24.7217 34.6958 25.0647 34.838C25.4077 34.9802 25.7753 35.0535 26.1466 35.0536C26.5179 35.0537 26.8856 34.9807 27.2287 34.8388C27.5718 34.6968 27.8835 34.4877 28.1462 34.2252ZM31.1472 25.2252L33.1472 27.2252L34.1472 26.2252C34.2785 26.0939 34.3827 25.938 34.4537 25.7664C34.5248 25.5949 34.5614 25.411 34.5614 25.2252C34.5614 25.0395 34.5248 24.8556 34.4537 24.684C34.3827 24.5125 34.2785 24.3566 34.1472 24.2252C34.0159 24.0939 33.86 23.9897 33.6884 23.9187C33.5168 23.8476 33.3329 23.811 33.1472 23.811C32.9615 23.811 32.7776 23.8476 32.606 23.9187C32.4344 23.9897 32.2785 24.0939 32.1472 24.2252L31.1472 25.2252Z" fill="white"/>
<path d="M31.1472 25.2252L33.1472 27.2252L34.1472 26.2252C34.2785 26.0939 34.3827 25.938 34.4537 25.7664C34.5248 25.5949 34.5614 25.411 34.5614 25.2252C34.5614 25.0395 34.5248 24.8556 34.4537 24.684C34.3827 24.5125 34.2785 24.3566 34.1472 24.2252C34.0159 24.0939 33.86 23.9897 33.6884 23.9187C33.5168 23.8476 33.3329 23.811 33.1472 23.811C32.9615 23.811 32.7776 23.8476 32.606 23.9187C32.4344 23.9897 32.2785 24.0939 32.1472 24.2252L31.1472 25.2252Z" fill="white"/>
<path d="M26.9079 19.1188C26.9739 18.8718 27.3239 18.8718 27.3899 19.1188L27.7489 20.4468C27.7603 20.489 27.7825 20.5274 27.8134 20.5583C27.8443 20.5892 27.8827 20.6114 27.9249 20.6228L29.2529 20.9808C29.4999 21.0468 29.4999 21.3968 29.2529 21.4628L27.9239 21.8218C27.8817 21.8333 27.8433 21.8555 27.8124 21.8864C27.7815 21.9173 27.7593 21.9557 27.7479 21.9978L27.3889 23.3248C27.3229 23.5718 26.9729 23.5718 26.9069 23.3248L26.5489 21.9968C26.5375 21.9547 26.5152 21.9163 26.4843 21.8854C26.4535 21.8545 26.415 21.8323 26.3729 21.8208L25.0439 21.4628C24.7979 21.3968 24.7979 21.0468 25.0439 20.9808L26.3739 20.6218C26.416 20.6104 26.4545 20.5882 26.4853 20.5573C26.5162 20.5264 26.5385 20.488 26.5499 20.4458L26.9079 19.1188ZM36.9079 18.1188C36.9739 17.8718 37.3239 17.8718 37.3899 18.1188L37.7479 19.4468C37.7593 19.489 37.7815 19.5274 37.8124 19.5583C37.8433 19.5892 37.8817 19.6114 37.9239 19.6228L39.2519 19.9808C39.4989 20.0468 39.4989 20.3968 39.2519 20.4628L37.9239 20.8208C37.8817 20.8323 37.8433 20.8545 37.8124 20.8854C37.7815 20.9163 37.7593 20.9547 37.7479 20.9968L37.3899 22.3248C37.3239 22.5718 36.9739 22.5718 36.9079 22.3248L36.5489 20.9968C36.5374 20.9546 36.515 20.9161 36.4839 20.8852C36.4528 20.8543 36.4142 20.8321 36.3719 20.8208L35.0439 20.4628C34.7979 20.3968 34.7979 20.0468 35.0439 19.9808L36.3719 19.6228C36.4142 19.6116 36.4528 19.5894 36.4839 19.5585C36.515 19.5276 36.5374 19.4891 36.5489 19.4468L36.9079 18.1188ZM37.9079 27.1188C37.9739 26.8718 38.3239 26.8718 38.3899 27.1188L38.7479 28.4468C38.7593 28.489 38.7815 28.5274 38.8124 28.5583C38.8433 28.5892 38.8817 28.6114 38.9239 28.6228L40.2519 28.9808C40.4989 29.0468 40.4989 29.3968 40.2519 29.4628L38.9239 29.8208C38.8817 29.8323 38.8433 29.8545 38.8124 29.8854C38.7815 29.9163 38.7593 29.9547 38.7479 29.9968L38.3899 31.3248C38.3239 31.5718 37.9739 31.5718 37.9079 31.3248L37.5499 29.9968C37.5384 29.9546 37.516 29.9161 37.4849 29.8852C37.4538 29.8543 37.4152 29.8321 37.3729 29.8208L36.0449 29.4628C35.7989 29.3968 35.7989 29.0468 36.0449 28.9808L37.3729 28.6228C37.4152 28.6116 37.4538 28.5894 37.4849 28.5585C37.516 28.5276 37.5384 28.4891 37.5499 28.4468L37.9079 27.1188Z" fill="white"/>
</svg>
