<svg width="167" height="40" viewBox="0 0 167 40" fill="none" xmlns="http://www.w3.org/2000/svg">
<g clip-path="url(#clip0_4155_1098)">
<path d="M51.4492 27.4514H63.1097V23.9392H55.5936V10.71H51.4492V27.4514Z" fill="white"/>
<path d="M70.0172 25.1104C68.3548 25.1104 67.4884 23.6587 67.4884 21.4811C67.4884 19.3035 68.3548 17.8284 70.0172 17.8284C71.6796 17.8284 72.5694 19.3035 72.5694 21.4811C72.5694 23.6587 71.6796 25.1104 70.0172 25.1104ZM70.0406 27.8265C73.904 27.8265 76.4328 25.087 76.4328 21.4811C76.4328 17.8753 73.904 15.1357 70.0406 15.1357C66.2006 15.1357 63.625 17.8753 63.625 21.4811C63.625 25.087 66.2006 27.8265 70.0406 27.8265Z" fill="white"/>
<path d="M83.121 31.5962C84.9005 31.5962 86.4693 31.1982 87.5229 30.2616C88.4829 29.3952 89.1151 28.084 89.1151 26.2811V15.4635H85.4624V16.7513H85.4156C84.7132 15.7445 83.6361 15.1123 82.0439 15.1123C79.0703 15.1123 77.0098 17.5943 77.0098 21.1065C77.0098 24.7825 79.5151 26.7962 82.2078 26.7962C83.6595 26.7962 84.5727 26.2108 85.2751 25.4147H85.3688V26.6089C85.3688 28.0606 84.6898 28.9035 83.0742 28.9035C81.8098 28.9035 81.1776 28.365 80.9668 27.7328H77.2673C77.642 30.2382 79.8195 31.5962 83.121 31.5962ZM83.0976 23.963C81.6693 23.963 80.7327 22.7923 80.7327 20.9894C80.7327 19.163 81.6693 17.9923 83.0976 17.9923C84.6898 17.9923 85.5327 19.3504 85.5327 20.966C85.5327 22.6518 84.76 23.963 83.0976 23.963Z" fill="white"/>
<path d="M96.6246 25.1104C94.9622 25.1104 94.0958 23.6587 94.0958 21.4811C94.0958 19.3035 94.9622 17.8284 96.6246 17.8284C98.2871 17.8284 99.1768 19.3035 99.1768 21.4811C99.1768 23.6587 98.2871 25.1104 96.6246 25.1104ZM96.648 27.8265C100.511 27.8265 103.04 25.087 103.04 21.4811C103.04 17.8753 100.511 15.1357 96.648 15.1357C92.808 15.1357 90.2324 17.8753 90.2324 21.4811C90.2324 25.087 92.808 27.8265 96.648 27.8265Z" fill="white"/>
<path d="M104.154 27.4514H107.971V15.4631H104.154V27.4514ZM104.154 13.8007H107.971V10.71H104.154V13.8007Z" fill="white"/>
<path d="M109.629 31.4089H113.445V26.2108H113.492C114.242 27.2177 115.342 27.8265 116.887 27.8265C120.025 27.8265 122.109 25.3445 122.109 21.4577C122.109 17.8518 120.165 15.1123 116.981 15.1123C115.342 15.1123 114.171 15.8382 113.352 16.9152H113.282V15.4635H109.629V31.4089ZM115.904 24.8762C114.265 24.8762 113.328 23.5416 113.328 21.5982C113.328 19.6547 114.171 18.1796 115.834 18.1796C117.473 18.1796 118.245 19.5377 118.245 21.5982C118.245 23.6352 117.356 24.8762 115.904 24.8762Z" fill="white"/>
<path d="M128.322 27.8265C131.46 27.8265 133.778 26.4684 133.778 23.846C133.778 20.7786 131.296 20.2401 129.189 19.8889C127.667 19.6079 126.309 19.4908 126.309 18.6479C126.309 17.8986 127.035 17.5474 127.971 17.5474C129.025 17.5474 129.751 17.8752 129.891 18.9523H133.403C133.216 16.5874 131.39 15.1123 127.995 15.1123C125.161 15.1123 122.82 16.4235 122.82 18.9523C122.82 21.7621 125.044 22.324 127.128 22.6752C128.72 22.9562 130.172 23.0733 130.172 24.1504C130.172 24.923 129.446 25.3445 128.299 25.3445C127.035 25.3445 126.239 24.7591 126.098 23.565H122.492C122.609 26.2108 124.81 27.8265 128.322 27.8265Z" fill="white"/>
<path d="M138.961 27.8034C140.623 27.8034 141.677 27.1478 142.543 25.977H142.613V27.4522H146.266V15.4639H142.45V22.1605C142.45 23.5887 141.653 24.5722 140.342 24.5722C139.125 24.5722 138.539 23.8463 138.539 22.5351V15.4639H134.746V23.3312C134.746 26.0005 136.198 27.8034 138.961 27.8034Z" fill="white"/>
<path d="M147.926 27.4518H151.742V20.7318C151.742 19.3035 152.445 18.2967 153.639 18.2967C154.786 18.2967 155.325 19.046 155.325 20.3338V27.4518H159.141V20.7318C159.141 19.3035 159.82 18.2967 161.038 18.2967C162.185 18.2967 162.724 19.046 162.724 20.3338V27.4518H166.54V19.6547C166.54 16.9621 165.182 15.1123 162.466 15.1123C160.921 15.1123 159.633 15.7679 158.697 17.2196H158.65C158.041 15.9318 156.847 15.1123 155.278 15.1123C153.545 15.1123 152.398 15.9318 151.649 17.1728H151.578V15.4635H147.926V27.4518Z" fill="white"/>
<path fill-rule="evenodd" clip-rule="evenodd" d="M21.0337 39.1591C31.81 39.1591 40.5459 30.4232 40.5459 19.6469C40.5459 8.87068 31.81 0.134766 21.0337 0.134766C10.2574 0.134766 1.52148 8.87068 1.52148 19.6469C1.52148 30.4232 10.2574 39.1591 21.0337 39.1591ZM27.1208 9.22437C27.4171 8.17189 26.3957 7.54953 25.463 8.21408L12.4416 17.4904C11.43 18.2111 11.5891 19.6469 12.6806 19.6469H16.1095V19.6204H22.7922L17.3471 21.5417L14.9466 30.0696C14.6503 31.1221 15.6716 31.7444 16.6044 31.0798L29.6258 21.8035C30.6374 21.0828 30.4782 19.6469 29.3868 19.6469H24.187L27.1208 9.22437Z" fill="white"/>
</g>
<defs>
<clipPath id="clip0_4155_1098">
<rect width="165.854" height="40" fill="white" transform="translate(0.853516)"/>
</clipPath>
</defs>
</svg>
