<svg width="24" height="24" viewBox="0 0 24 24" fill="none" xmlns="http://www.w3.org/2000/svg">
<path d="M11.9984 17.2752L7.84838 19.7752C7.66504 19.8919 7.47338 19.9419 7.27338 19.9252C7.07338 19.9085 6.89838 19.8419 6.74838 19.7252C6.59838 19.6085 6.48171 19.4629 6.39838 19.2882C6.31504 19.1135 6.29838 18.9175 6.34838 18.7002L7.44838 13.9752L3.77338 10.8002C3.60671 10.6502 3.50271 10.4792 3.46138 10.2872C3.42004 10.0952 3.43238 9.90786 3.49838 9.7252C3.56438 9.54253 3.66438 9.39253 3.79838 9.2752C3.93238 9.15786 4.11571 9.08286 4.34838 9.0502L9.19838 8.6252L11.0734 4.1752C11.1567 3.9752 11.286 3.8252 11.4614 3.7252C11.6367 3.6252 11.8157 3.5752 11.9984 3.5752C12.181 3.5752 12.36 3.6252 12.5354 3.7252C12.7107 3.8252 12.84 3.9752 12.9234 4.1752L14.7984 8.6252L19.6484 9.0502C19.8817 9.08353 20.065 9.15853 20.1984 9.2752C20.3317 9.39186 20.4317 9.54186 20.4984 9.7252C20.565 9.90853 20.5777 10.0962 20.5364 10.2882C20.495 10.4802 20.3907 10.6509 20.2234 10.8002L16.5484 13.9752L17.6484 18.7002C17.6984 18.9169 17.6817 19.1129 17.5984 19.2882C17.515 19.4635 17.3984 19.6092 17.2484 19.7252C17.0984 19.8412 16.9234 19.9079 16.7234 19.9252C16.5234 19.9425 16.3317 19.8925 16.1484 19.7752L11.9984 17.2752Z" fill="white"/>
</svg>
